<?xml version="1.0" encoding="iso-8859-1"?>
<!-- Uploaded to: SVG Repo, www.svgrepo.com, Generator: SVG Repo Mixer Tools -->
<svg height="800px" width="800px" version="1.1" id="Layer_1" xmlns="http://www.w3.org/2000/svg" xmlns:xlink="http://www.w3.org/1999/xlink" 
	 viewBox="0 0 512 512" xml:space="preserve">
<path style="fill:#FFD960;" d="M329.751,298.901l-3.476-20.259l57.426-55.974c2.437-2.375,3.313-5.928,2.262-9.164
	c-1.052-3.235-3.849-5.594-7.214-6.083l-79.36-11.53l-35.491-71.912c-1.505-3.05-4.612-4.982-8.013-4.982s-6.51,1.931-8.014,4.982
	l-35.491,71.912l-79.358,11.53c-3.365,0.49-6.164,2.848-7.215,6.083s-0.174,6.788,2.262,9.164l57.426,55.974l-13.558,79.037
	c-0.574,3.352,0.804,6.742,3.557,8.741c2.752,2,6.402,2.264,9.413,0.68l70.979-37.315l70.979,37.315
	c1.307,0.689,2.735,1.027,4.159,1.027c1.851,0,3.696-0.576,5.253-1.707c2.755-2,4.131-5.39,3.558-8.741l-5.636-32.853"/>
<g style="opacity:0.2;">
	<path style="fill:#231F20;" d="M196.125,350.458l12.328-71.863c0.001-0.001,0.001-0.002,0.001-0.003
		c1.145-6.67-3.311-11.598-3.311-11.598l0,0l-52.885-51.548c-2.436-2.375-3.312-5.928-2.262-9.164
		c0.161-0.498,0.377-0.966,0.617-1.418l-17.593,2.556c-3.365,0.49-6.164,2.848-7.215,6.083c-1.051,3.235-0.174,6.788,2.262,9.164
		l57.426,55.974l-13.558,79.037c-0.574,3.352,0.804,6.742,3.557,8.741c2.752,2,6.402,2.264,9.413,0.68l14.894-7.83
		c-0.038-0.026-0.078-0.046-0.116-0.072C196.929,357.199,195.551,353.81,196.125,350.458z"/>
</g>
<g>
	<path style="fill:#FFD960;" d="M182.499,49.992c-0.466-1.434-1.706-2.479-3.196-2.695l-35.157-5.109l-15.723-31.856
		c-0.667-1.352-2.043-2.208-3.551-2.208c-1.508,0-2.883,0.855-3.551,2.208l-15.723,31.856l-35.157,5.109
		c-1.49,0.217-2.731,1.261-3.196,2.695c-0.465,1.432-0.077,3.006,1.002,4.058l25.44,24.797l-6.006,35.017
		c-0.255,1.485,0.355,2.985,1.575,3.872c1.22,0.886,2.837,1.003,4.17,0.301l31.446-16.531l31.445,16.531
		c0.579,0.304,1.213,0.455,1.844,0.455c0.82,0,1.638-0.256,2.328-0.756c1.219-0.886,1.829-2.387,1.576-3.872l-6.006-35.017
		l25.439-24.796C182.575,52.998,182.964,51.425,182.499,49.992z"/>
	<path style="fill:#FFD960;" d="M299.056,452.558c-0.349-1.073-1.278-1.857-2.395-2.019l-26.338-3.827l-11.78-23.866
		c-0.497-1.013-1.529-1.654-2.659-1.654c-1.129,0-2.159,0.641-2.659,1.654l-11.778,23.866l-26.338,3.827
		c-1.117,0.162-2.047,0.946-2.396,2.019c-0.349,1.073-0.057,2.253,0.752,3.042l19.06,18.578l-4.501,26.23
		c-0.19,1.112,0.266,2.238,1.18,2.902c0.914,0.664,2.125,0.751,3.125,0.225l23.557-12.386l23.559,12.386
		c0.433,0.227,0.908,0.339,1.379,0.339c0.613,0,1.229-0.19,1.743-0.565c0.914-0.664,1.371-1.789,1.183-2.902l-4.502-26.23
		l19.06-18.578C299.115,454.811,299.404,453.631,299.056,452.558z"/>
</g>
<g style="opacity:0.2;">
	<path style="fill:#231F20;" d="M112.594,107.365l6.006-35.017l-25.44-24.797c-0.913-0.89-1.325-2.153-1.15-3.388l-21.568,3.135
		c-1.49,0.217-2.731,1.261-3.196,2.695c-0.465,1.432-0.077,3.006,1.002,4.058l25.44,24.797l-6.006,35.017
		c-0.255,1.485,0.355,2.985,1.575,3.872c1.22,0.886,2.837,1.003,4.17,0.301l19.115-10.05
		C112.544,107.781,112.558,107.573,112.594,107.365z"/>
</g>
<g style="opacity:0.2;">
	<path style="fill:#231F20;" d="M257.436,467.678l-19.06-18.578c-0.505-0.493-0.781-1.142-0.852-1.819l-22.416,3.257
		c-1.117,0.162-2.047,0.946-2.396,2.019c-0.349,1.073-0.057,2.253,0.752,3.042l19.06,18.578l-4.501,26.23
		c-0.19,1.112,0.266,2.238,1.18,2.902c0.914,0.664,2.125,0.751,3.125,0.225l20.836-10.955L257.436,467.678z"/>
</g>
<g>
	<circle style="fill:#FFD960;" cx="444.708" cy="300.169" r="25.92"/>
	<circle style="fill:#FFD960;" cx="67.298" cy="342.175" r="25.92"/>
</g>
<g style="opacity:0.2;">
	<path style="fill:#231F20;" d="M444.707,300.173c0-9.594,5.215-17.962,12.96-22.444c-3.814-2.206-8.236-3.476-12.96-3.476
		c-14.316,0-25.92,11.604-25.92,25.92c0,14.315,11.604,25.92,25.92,25.92c4.723,0,9.146-1.269,12.96-3.476
		C449.921,318.136,444.707,309.766,444.707,300.173z"/>
</g>
<g style="opacity:0.2;">
	<path style="fill:#231F20;" d="M67.293,342.17c0-9.593,5.214-17.962,12.96-22.444c-3.814-2.206-8.238-3.476-12.96-3.476
		c-14.316,0-25.92,11.604-25.92,25.92c0,14.315,11.604,25.92,25.92,25.92c4.723,0,9.146-1.269,12.96-3.476
		C72.508,360.133,67.293,351.763,67.293,342.17z"/>
</g>
<g>
	<path style="fill:#231F20;" d="M180.729,376.271c-3.522,0-7.021-1.105-10.013-3.277c-5.291-3.844-7.893-10.237-6.789-16.685
		l12.837-74.831l-54.367-52.993c-4.685-4.568-6.339-11.268-4.318-17.491c2.019-6.22,7.296-10.67,13.771-11.613l75.133-10.916
		l33.601-68.082c2.893-5.865,8.756-9.51,15.299-9.51c6.543,0,12.407,3.645,15.3,9.512l33.6,68.08l75.132,10.916
		c6.475,0.942,11.751,5.392,13.773,11.612c2.022,6.223,0.368,12.926-4.318,17.491l-54.366,52.992l2.753,16.048
		c0.759,4.423-2.211,8.622-6.632,9.38c-4.433,0.76-8.622-2.211-9.38-6.632l-3.476-20.259c-0.453-2.636,0.421-5.325,2.335-7.191
		l57.426-55.974c0.224-0.218,0.302-0.538,0.206-0.835c-0.096-0.298-0.349-0.51-0.657-0.556l-79.358-11.53
		c-2.646-0.383-4.934-2.046-6.117-4.443l-35.491-71.912c-0.273-0.554-1.187-0.549-1.458-0.001l-35.491,71.914
		c-1.184,2.398-3.47,4.06-6.117,4.443l-79.358,11.53c-0.303,0.044-0.562,0.261-0.656,0.552c-0.095,0.296-0.014,0.623,0.206,0.838
		l57.424,55.973c1.915,1.866,2.789,4.556,2.336,7.191l-13.558,79.037c-0.052,0.301,0.076,0.614,0.324,0.795
		c0.25,0.181,0.586,0.205,0.857,0.063l70.98-37.315c2.368-1.245,5.194-1.245,7.561,0l70.979,37.315
		c0.229,0.12,0.481,0.21,0.858-0.064c0.253-0.183,0.378-0.49,0.325-0.798l-5.635-32.848c-0.759-4.423,2.211-8.622,6.632-9.38
		c4.431-0.759,8.623,2.212,9.38,6.633l5.636,32.853c1.105,6.452-1.499,12.846-6.793,16.688c-2.934,2.131-6.4,3.257-10.026,3.257
		c-2.76,0-5.507-0.679-7.945-1.964l-67.194-35.326l-67.199,35.328C186.166,375.615,183.44,376.271,180.729,376.271z"/>
	<path style="fill:#231F20;" d="M91.585,126.617c-2.569,0-5.025-0.798-7.103-2.308c-3.75-2.726-5.59-7.254-4.807-11.819
		l5.284-30.805L62.576,59.868c-3.318-3.237-4.489-7.981-3.059-12.385c1.433-4.409,5.171-7.561,9.757-8.227l30.929-4.494
		l13.833-28.027C116.084,2.581,120.237,0,124.87,0c4.635,0,8.788,2.581,10.837,6.737l13.832,28.025l30.93,4.494
		c4.586,0.666,8.325,3.818,9.755,8.228c1.431,4.402,0.259,9.147-3.058,12.383l-22.383,21.817l5.284,30.807
		c0.782,4.566-1.059,9.091-4.805,11.815c-2.082,1.512-4.537,2.309-7.105,2.309c-1.948,0-3.891-0.479-5.617-1.384l-27.671-14.547
		l-27.665,14.544C95.482,126.136,93.536,126.617,91.585,126.617z M124.87,93.383c1.299,0,2.596,0.311,3.78,0.933l23.977,12.606
		l-4.58-26.7c-0.452-2.635,0.421-5.325,2.336-7.191l19.397-18.908l-26.806-3.895c-2.646-0.385-4.933-2.047-6.117-4.444
		L124.87,21.491l-11.989,24.291c-1.184,2.397-3.47,4.06-6.117,4.444l-26.806,3.895L99.357,73.03
		c1.915,1.866,2.789,4.556,2.336,7.191l-4.58,26.699l23.976-12.605C122.274,93.693,123.573,93.383,124.87,93.383z"/>
	<path style="fill:#231F20;" d="M230.947,512c-2.356,0-4.61-0.731-6.517-2.117c-3.44-2.501-5.131-6.654-4.416-10.843l3.779-22.029
		l-16.001-15.597c-3.045-2.967-4.121-7.322-2.808-11.367c1.315-4.047,4.745-6.938,8.954-7.55l22.113-3.213l9.888-20.035
		c1.881-3.814,5.692-6.183,9.944-6.183c4.197,0,8.103,2.433,9.952,6.199l9.882,20.019l22.112,3.213
		c4.208,0.612,7.639,3.503,8.953,7.547c1.316,4.05,0.238,8.409-2.814,11.377l-15.994,15.59l3.779,22.02
		c0.712,4.204-0.98,8.353-4.413,10.848c-3.295,2.408-8.033,2.762-11.678,0.846l-19.78-10.4l-19.776,10.398
		C234.521,511.559,232.737,512,230.947,512z M255.884,483.026c1.299,0,2.596,0.311,3.78,0.934l14.31,7.523l-2.734-15.93
		c-0.453-2.635,0.421-5.325,2.335-7.191l11.577-11.283l-15.997-2.323c-2.646-0.385-4.934-2.047-6.117-4.444l-7.153-14.493
		l-7.152,14.493c-1.184,2.397-3.47,4.06-6.117,4.444l-15.997,2.323l11.576,11.283c1.915,1.866,2.789,4.556,2.336,7.191l-2.733,15.93
		l14.307-7.522C253.286,483.337,254.584,483.026,255.884,483.026z"/>
	<path style="fill:#231F20;" d="M444.707,334.218c-18.771,0-34.044-15.272-34.044-34.044c0-18.772,15.273-34.044,34.044-34.044
		s34.044,15.272,34.044,34.044C478.751,318.946,463.478,334.218,444.707,334.218z M444.707,282.377
		c-9.814,0-17.797,7.984-17.797,17.797s7.983,17.797,17.797,17.797c9.814,0,17.797-7.984,17.797-17.797
		C462.503,290.361,454.519,282.377,444.707,282.377z"/>
	<path style="fill:#231F20;" d="M67.293,376.214c-18.772,0-34.044-15.273-34.044-34.044s15.272-34.044,34.044-34.044
		s34.044,15.273,34.044,34.044C101.336,360.942,86.065,376.214,67.293,376.214z M67.293,324.374
		c-9.814,0-17.797,7.983-17.797,17.797c0,9.814,7.983,17.797,17.797,17.797s17.797-7.983,17.797-17.797
		C85.089,332.357,77.106,324.374,67.293,324.374z"/>
	<circle style="fill:#231F20;" cx="378.385" cy="100.399" r="18.101"/>
	<circle style="fill:#231F20;" cx="418.787" cy="429.381" r="18.102"/>
</g>
</svg>